HIERARCHY
ROOT Hips
{
	OFFSET 0.00000 0.00000 0.00000
	CHANNELS 6 Xposition Yposition Zposition Yrotation Zrotation Xrotation 
	JOINT Lumbar
	{
		OFFSET 0 0 0
		CHANNELS 3 Zrotation Xrotation Yrotation
		JOINT Neck
		{
			OFFSET 0.00 0.2701 0.00
			CHANNELS 3 Zrotation Xrotation Yrotation
			End Site
			{
				OFFSET 0.00 0.1379 0.00
			}
		}
		JOINT RightShoulder
		{
			OFFSET 0.0119 0.2289 0.1181
			CHANNELS 3 Zrotation Xrotation Yrotation
			JOINT RightElbow
			{
				OFFSET 0.00 -0.1475 0.00
				CHANNELS 2 Zrotation Yrotation
				JOINT RightWrist
				{
					OFFSET 0.00 -0.1605 0.00
					CHANNELS 2 Zrotation Xrotation
					End Site
					{
						OFFSET 0.0040 -0.1068 0.0006
					}
				}
			}
		}
		JOINT LeftShoulder
		{
			OFFSET 0.0119 0.2289 -0.1181
			CHANNELS 3 Zrotation Xrotation Yrotation
			JOINT LeftElbow
			{
				OFFSET 0.00 -0.1475 0.00
				CHANNELS 2 Zrotation Yrotation
				JOINT LeftWrist
				{
					OFFSET 0.00 -0.1605 0.00
					CHANNELS 2 Zrotation Xrotation
					End Site
					{
						OFFSET 0.0040 -0.1068 -0.0006
					}
				}
			}
		}
	}
	JOINT RightHip
	{
		OFFSET 0.0316 -0.0424 0.0458
		CHANNELS 3 Zrotation Xrotation Yrotation
		JOINT RightKnee
		{
			OFFSET 0.00 -0.2438 0.00
			CHANNELS 1 Zrotation
			JOINT RightAnkle
			{
				OFFSET 0.00 -0.2449 0.00
				CHANNELS 3 Zrotation Xrotation Yrotation
				End Site
				{
					OFFSET 0.1237 -0.0542 0.0051
				}
			}
		}
	}
	JOINT LeftHip
	{
		OFFSET 0.0316 -0.0424 -0.0458
		CHANNELS 3 Zrotation Xrotation Yrotation
		JOINT LeftKnee
		{
			OFFSET 0.00 -0.2438 0.00
			CHANNELS 1 Zrotation
			JOINT LeftAnkle
			{
				OFFSET 0.00 -0.2449 0.00
				CHANNELS 3 Zrotation Xrotation Yrotation
				End Site
				{
					OFFSET 0.1237 -0.0542 -0.0051
				}
			}
		}
	}
}
MOTION
Frames: 14
Frame Time: 0.02
-0 0.57926 -0 178.9856 0 -3.70312 5.12031 3.45879 -2.88243 -32.87965 2.23132 3.97577 -1.1936 -70.21432 -87.14685 19.61878 70.20136 -31.64872 -1.50547 21.30381 64.73239 75.48178 17.23898 -88.13478 -23.19018 4.2178 -1.52673 6.26429 -6.93155 -8.58841 0.24527 -3.65171 -9.26756 -1.9716 2.883 4.44854 -7.36095 5.99726 5.20638 9.19598
6e-05 0.57927 4e-05 178.94789 0 -3.70638 5.09673 3.46024 -2.85205 -32.93565 2.19828 3.96361 -1.20578 -70.20362 -87.14685 19.60725 70.09579 -31.68365 -1.49581 21.2785 64.79384 75.5954 17.21403 -88.16594 -23.30442 4.25957 -1.52131 6.26502 -6.88316 -8.57914 0.22612 -3.66559 -9.28877 -1.97024 2.87906 4.44357 -7.36098 5.98515 5.21858 9.23128
0.00011 0.57928 8e-05 178.91049 0 -3.70963 5.07325 3.46164 -2.8218 -32.99205 2.16534 3.95148 -1.21709 -70.19275 -87.14685 19.59585 69.99149 -31.71836 -1.48619 21.25419 64.85514 75.70704 17.18979 -88.19672 -23.41803 4.30076 -1.51593 6.26572 -6.83531 -8.56992 0.20715 -3.6793 -9.30967 -1.96888 2.87514 4.43862 -7.36099 5.97312 5.23069 9.26632
0.00017 0.5793 0.00012 178.87379 0 -3.71286 5.04996 3.46292 -2.79175 -33.04979 2.1326 3.93951 -1.22771 -70.18181 -87.14685 19.58431 69.8903 -31.75347 -1.47627 21.23258 64.91655 75.81364 17.16757 -88.22788 -23.53026 4.33954 -1.51058 6.26631 -6.78925 -8.56089 0.18867 -3.69233 -9.32932 -1.96754 2.8713 4.43421 -7.36088 5.96132 5.24244 9.30041
0.00023 0.57931 0.00016 178.83318 0 -3.71621 5.02572 3.46489 -2.76059 -33.09944 2.09901 3.92684 -1.24533 -70.17215 -87.14684 19.5728 69.7714 -31.78761 -1.46755 21.19541 64.97749 75.94913 17.13394 -88.25892 -23.64983 4.39047 -1.50502 6.26745 -6.73385 -8.55094 0.16753 -3.70882 -9.35534 -1.96615 2.86711 4.42755 -7.36139 5.94833 5.25596 9.33925
0.00028 0.57932 0.0002 178.80101 0 -3.71929 5.0035 3.46539 -2.73184 -33.16684 2.0671 3.9156 -1.24585 -70.15917 -87.14684 19.56172 69.69092 -31.82299 -1.45656 21.19206 65.03929 76.02191 17.12494 -88.28887 -23.75371 4.41607 -1.49993 6.26745 -6.69817 -8.54291 0.15206 -3.71804 -9.36804 -1.96485 2.86364 4.42528 -7.3606 5.93787 5.26578 9.36821
0.00033 0.57932 0.00024 178.79088 0 -3.72169 4.98654 3.4619 -2.70896 -33.28135 2.04019 3.90873 -1.2144 -70.14092 -87.14686 19.54808 69.71303 -31.86897 -1.43653 21.27825 65.10563 75.92898 17.18255 -88.32847 -23.81626 4.36611 -1.49574 6.26417 -6.71859 -8.54037 0.15213 -3.7061 -9.34136 -1.96394 2.86238 4.43879 -7.35601 5.93446 5.26467 9.36791
0.00037 0.57932 0.00027 178.78945 0 -3.7238 4.97166 3.45694 -2.68865 -33.41432 2.01484 3.90319 -1.16145 -70.1182 -87.14673 19.53587 69.77591 -31.91467 -1.41481 21.39945 65.17229 75.77104 17.26538 -88.36528 -23.8629 4.29145 -1.49206 6.25975 -6.75861 -8.53974 0.15795 -3.68698 -9.30167 -1.96308 2.86182 4.45618 -7.35017 5.93361 5.25993 9.35794
0.00041 0.57933 0.00031 178.78488 0 -3.72599 4.95603 3.45261 -2.66766 -33.54022 1.98855 3.89684 -1.11018 -70.09545 -87.14688 19.52504 69.82074 -31.95622 -1.39544 21.50723 65.23779 75.63815 17.33769 -88.39442 -23.91526 4.23181 -1.48842 6.25594 -6.7886 -8.53807 0.16116 -3.67183 -9.26962 -1.96213 2.8608 4.46929 -7.34501 5.93151 5.25731 9.35379
0.00046 0.57933 0.00035 178.77704 0 -3.72842 4.93962 3.44841 -2.6446 -33.66037 1.96339 3.89156 -1.09885 -70.08299 -87.14681 19.50436 69.85808 -32.01688 -1.36883 21.6043 65.3085 75.52518 17.40597 -88.45885 -23.97299 4.15659 -1.48375 6.25177 -6.82335 -8.53705 0.16427 -3.65373 -9.23038 -1.96152 2.86038 4.49259 -7.33928 5.92965 5.25273 9.34394
0.0005 0.57933 0.00038 178.77788 0 -3.73028 4.92528 3.44364 -2.62649 -33.79707 1.93605 3.88413 -0.99197 -70.04607 -87.14633 19.50611 69.92759 -32.03634 -1.35761 21.73222 65.36725 75.3541 17.48867 -88.45219 -24.01699 4.10739 -1.48123 6.24807 -6.85282 -8.53525 0.16904 -3.64002 -9.20289 -1.96017 2.8589 4.49614 -7.33456 5.92807 5.25131 9.34328
0.00051 0.57933 0.00043 178.80226 0 -3.73058 4.91632 3.43724 -2.62132 -33.97348 1.90414 3.87251 -0.68791 -69.9583 -87.14776 19.55551 70.01872 -31.95388 -1.38335 21.93575 65.40134 75.04575 17.60463 -88.22467 -24.01658 4.14151 -1.4854 6.24604 -6.86296 -8.52982 0.17633 -3.64063 -9.21221 -1.95716 2.85403 4.43922 -7.33207 5.92518 5.26013 9.37361
0.00051 0.57932 0.00047 178.83479 0 -3.73031 4.90926 3.43037 -2.62112 -34.16614 1.86968 3.85829 -0.27661 -69.84234 -87.14551 19.62969 70.15261 -31.82794 -1.42591 22.17 65.42057 74.67792 17.73421 -87.93126 -24.00483 4.20193 -1.4915 6.24449 -6.86708 -8.52381 0.18526 -3.64584 -9.23362 -1.95328 2.8481 4.36314 -7.33087 5.92278 5.27217 9.41297
0.00052 0.57931 0.00051 178.86244 0 -3.73033 4.90128 3.424 -2.61867 -34.35237 1.83518 3.8439 0.12545 -69.73011 -87.14644 19.70208 70.30309 -31.71394 -1.46442 22.38991 65.44261 74.33497 17.85793 -87.68353 -24.00509 4.24642 -1.49623 6.24266 -6.87397 -8.51865 0.1938 -3.64861 -9.24864 -1.94962 2.84286 4.29917 -7.32958 5.92104 5.2823 9.446
